HIERARCHY
ROOT Hips
{
	OFFSET 1.324476 86.935013 4.250773
	CHANNELS 6 Xposition Yposition Zposition Zrotation Yrotation Xrotation 
	JOINT Spine
	{
		OFFSET 0.000000 8.814246 -2.080107
		CHANNELS 3 Zrotation Yrotation Xrotation
		JOINT Spine1
		{
			OFFSET 0.000000 8.844141 -0.000000
			CHANNELS 3 Zrotation Yrotation Xrotation
			JOINT Spine2
			{
				OFFSET 0.000000 11.682268 0.000000
				CHANNELS 3 Zrotation Yrotation Xrotation
				JOINT Spine3
				{
					OFFSET 0.000000 11.746700 0.000000
					CHANNELS 3 Zrotation Yrotation Xrotation
					JOINT Neck
					{
						OFFSET -0.000000 17.658264 -0.000000
						CHANNELS 3 Zrotation Yrotation Xrotation
						JOINT Neck1
						{
							OFFSET 0.000000 5.101515 -0.000000
							CHANNELS 3 Zrotation Yrotation Xrotation
							JOINT Head
							{
								OFFSET 0.000000 5.101515 0.000000
								CHANNELS 3 Zrotation Yrotation Xrotation
								JOINT HeadEnd
								{
									OFFSET -0.000000 11.655085 0.000000
									CHANNELS 3 Zrotation Yrotation Xrotation
									End Site
									{
										OFFSET 0.000000 0.000000 0.000000
									}
								}
							}
						}
					}
					JOINT RightShoulder
					{
						OFFSET -2.625389 11.175210 -0.000000
						CHANNELS 3 Zrotation Yrotation Xrotation
						JOINT RightArm
						{
							OFFSET -0.000000 10.434715 -0.000000
							CHANNELS 3 Zrotation Yrotation Xrotation
							JOINT RightForeArm
							{
								OFFSET -0.000000 29.628420 -0.000000
								CHANNELS 3 Zrotation Yrotation Xrotation
								JOINT RightHand
								{
									OFFSET -0.000000 22.857611 -0.000000
									CHANNELS 3 Zrotation Yrotation Xrotation
									JOINT RightHandThumb1
									{
										OFFSET -2.867323 3.959563 2.944291
										CHANNELS 3 Zrotation Yrotation Xrotation
										JOINT RightHandThumb2
										{
											OFFSET -0.000000 3.350399 0.000000
											CHANNELS 3 Zrotation Yrotation Xrotation
											JOINT RightHandThumb3
											{
												OFFSET 0.000000 3.756509 -0.000000
												CHANNELS 3 Zrotation Yrotation Xrotation
												JOINT RightHandThumb4
												{
													OFFSET 0.000000 3.147345 -0.000000
													CHANNELS 3 Zrotation Yrotation Xrotation
													End Site
													{
														OFFSET 0.000000 0.000000 0.000000
													}
												}
											}
										}
									}
									JOINT RightHandIndex1
									{
										OFFSET -0.086752 10.030893 2.345280
										CHANNELS 3 Zrotation Yrotation Xrotation
										JOINT RightHandIndex2
										{
											OFFSET -0.000000 4.061090 -0.000000
											CHANNELS 3 Zrotation Yrotation Xrotation
											JOINT RightHandIndex3
											{
												OFFSET 0.000000 3.248873 0.000000
												CHANNELS 3 Zrotation Yrotation Xrotation
												JOINT RightHandIndex4
												{
													OFFSET 0.000000 2.639709 -0.000000
													CHANNELS 3 Zrotation Yrotation Xrotation
													End Site
													{
														OFFSET 0.000000 0.000000 0.000000
													}
												}
											}
										}
									}
									JOINT RightHandMiddle1
									{
										OFFSET 0.104102 9.502952 0.006768
										CHANNELS 3 Zrotation Yrotation Xrotation
										JOINT RightHandMiddle2
										{
											OFFSET 0.000000 4.568727 0.000000
											CHANNELS 3 Zrotation Yrotation Xrotation
											JOINT RightHandMiddle3
											{
												OFFSET 0.000000 3.654981 -0.000000
												CHANNELS 3 Zrotation Yrotation Xrotation
												JOINT RightHandMiddle4
												{
													OFFSET -0.000000 2.741236 -0.000000
													CHANNELS 3 Zrotation Yrotation Xrotation
													End Site
													{
														OFFSET 0.000000 0.000000 0.000000
													}
												}
											}
										}
									}
									JOINT RightHandRing1
									{
										OFFSET 0.086752 8.921708 -2.267442
										CHANNELS 3 Zrotation Yrotation Xrotation
										JOINT RightHandRing2
										{
											OFFSET -0.000000 4.061090 0.000000
											CHANNELS 3 Zrotation Yrotation Xrotation
											JOINT RightHandRing3
											{
												OFFSET -0.000000 3.654981 -0.000000
												CHANNELS 3 Zrotation Yrotation Xrotation
												JOINT RightHandRing4
												{
													OFFSET -0.000000 2.741236 -0.000000
													CHANNELS 3 Zrotation Yrotation Xrotation
													End Site
													{
														OFFSET 0.000000 0.000000 0.000000
													}
												}
											}
										}
									}
									JOINT RightHandPinky1
									{
										OFFSET -0.173504 7.976997 -4.467199
										CHANNELS 3 Zrotation Yrotation Xrotation
										JOINT RightHandPinky2
										{
											OFFSET -0.000000 3.350399 -0.000000
											CHANNELS 3 Zrotation Yrotation Xrotation
											JOINT RightHandPinky3
											{
												OFFSET -0.000000 2.842763 -0.000000
												CHANNELS 3 Zrotation Yrotation Xrotation
												JOINT RightHandPinky4
												{
													OFFSET 0.000000 2.639709 0.000000
													CHANNELS 3 Zrotation Yrotation Xrotation
													End Site
													{
														OFFSET 0.000000 0.000000 0.000000
													}
												}
											}
										}
									}
									JOINT RightForeArmEnd
									{
										OFFSET 0.000000 0.000000 0.000000
										CHANNELS 3 Zrotation Yrotation Xrotation
										End Site
										{
											OFFSET 0.000000 0.000000 0.000000
										}
									}
								}
								JOINT RightArmEnd
								{
									OFFSET 0.000000 0.000000 0.000000
									CHANNELS 3 Zrotation Yrotation Xrotation
									End Site
									{
										OFFSET 0.000000 0.000000 0.000000
									}
								}
							}
						}
					}
					JOINT LeftShoulder
					{
						OFFSET 2.625389 11.175210 -0.000000
						CHANNELS 3 Zrotation Yrotation Xrotation
						JOINT LeftArm
						{
							OFFSET 0.000000 10.813635 0.000000
							CHANNELS 3 Zrotation Yrotation Xrotation
							JOINT LeftForeArm
							{
								OFFSET 0.000000 28.724781 -0.000000
								CHANNELS 3 Zrotation Yrotation Xrotation
								JOINT LeftHand
								{
									OFFSET 0.644384 25.716167 -0.328871
									CHANNELS 3 Zrotation Yrotation Xrotation
									JOINT LeftHandThumb1
									{
										OFFSET 2.867323 3.959563 2.944291
										CHANNELS 3 Zrotation Yrotation Xrotation
										JOINT LeftHandThumb2
										{
											OFFSET -0.000000 3.350399 -0.000000
											CHANNELS 3 Zrotation Yrotation Xrotation
											JOINT LeftHandThumb3
											{
												OFFSET -0.000000 3.756509 0.000000
												CHANNELS 3 Zrotation Yrotation Xrotation
												JOINT LeftHandThumb4
												{
													OFFSET 0.000000 3.100000 -0.000000
													CHANNELS 3 Zrotation Yrotation Xrotation
													End Site
													{
														OFFSET 0.000000 0.000000 0.000000
													}
												}
											}
										}
									}
									JOINT LeftHandIndex1
									{
										OFFSET 0.086752 10.030893 2.345280
										CHANNELS 3 Zrotation Yrotation Xrotation
										JOINT LeftHandIndex2
										{
											OFFSET 0.000000 4.061090 -0.000000
											CHANNELS 3 Zrotation Yrotation Xrotation
											JOINT LeftHandIndex3
											{
												OFFSET 0.000000 3.248873 -0.000000
												CHANNELS 3 Zrotation Yrotation Xrotation
												JOINT LeftHandIndex4
												{
													OFFSET -0.000000 2.639709 0.000000
													CHANNELS 3 Zrotation Yrotation Xrotation
													End Site
													{
														OFFSET 0.000000 0.000000 0.000000
													}
												}
											}
										}
									}
									JOINT LeftHandMiddle1
									{
										OFFSET -0.104102 9.502952 0.006768
										CHANNELS 3 Zrotation Yrotation Xrotation
										JOINT LeftHandMiddle2
										{
											OFFSET 0.000000 4.568727 -0.000000
											CHANNELS 3 Zrotation Yrotation Xrotation
											JOINT LeftHandMiddle3
											{
												OFFSET 0.000000 3.654981 -0.000000
												CHANNELS 3 Zrotation Yrotation Xrotation
												JOINT LeftHandMiddle4
												{
													OFFSET -0.000000 2.741236 0.000000
													CHANNELS 3 Zrotation Yrotation Xrotation
													End Site
													{
														OFFSET 0.000000 0.000000 0.000000
													}
												}
											}
										}
									}
									JOINT LeftHandRing1
									{
										OFFSET -0.086752 8.921708 -2.267442
										CHANNELS 3 Zrotation Yrotation Xrotation
										JOINT LeftHandRing2
										{
											OFFSET 0.000000 4.061090 -0.000000
											CHANNELS 3 Zrotation Yrotation Xrotation
											JOINT LeftHandRing3
											{
												OFFSET 0.000000 3.654981 -0.000000
												CHANNELS 3 Zrotation Yrotation Xrotation
												JOINT LeftHandRing4
												{
													OFFSET 0.000000 2.741236 0.000000
													CHANNELS 3 Zrotation Yrotation Xrotation
													End Site
													{
														OFFSET 0.000000 0.000000 0.000000
													}
												}
											}
										}
									}
									JOINT LeftHandPinky1
									{
										OFFSET 0.173504 7.976997 -4.467199
										CHANNELS 3 Zrotation Yrotation Xrotation
										JOINT LeftHandPinky2
										{
											OFFSET 0.000000 3.350399 -0.000000
											CHANNELS 3 Zrotation Yrotation Xrotation
											JOINT LeftHandPinky3
											{
												OFFSET -0.000000 2.842763 0.000000
												CHANNELS 3 Zrotation Yrotation Xrotation
												JOINT LeftHandPinky4
												{
													OFFSET 0.000000 2.639709 -0.000000
													CHANNELS 3 Zrotation Yrotation Xrotation
													End Site
													{
														OFFSET 0.000000 0.000000 0.000000
													}
												}
											}
										}
									}
									JOINT LeftForeArmEnd
									{
										OFFSET 0.000000 0.000000 0.000000
										CHANNELS 3 Zrotation Yrotation Xrotation
										End Site
										{
											OFFSET 0.000000 0.000000 0.000000
										}
									}
								}
								JOINT LeftArmEnd
								{
									OFFSET 0.000000 0.000000 0.000000
									CHANNELS 3 Zrotation Yrotation Xrotation
									End Site
									{
										OFFSET 0.000000 0.000000 0.000000
									}
								}
							}
						}
					}
				}
			}
		}
	}
	JOINT RightUpLeg
	{
		OFFSET -11.289943 -0.000000 0.000000
		CHANNELS 3 Zrotation Yrotation Xrotation
		JOINT RightLeg
		{
			OFFSET -0.000000 -38.200325 -0.000000
			CHANNELS 3 Zrotation Yrotation Xrotation
			JOINT RightFoot
			{
				OFFSET -0.000000 -39.900856 0.000000
				CHANNELS 3 Zrotation Yrotation Xrotation
				JOINT RightToeBase
				{
					OFFSET 0.000000 0.000000 15.261641
					CHANNELS 3 Zrotation Yrotation Xrotation
					JOINT RightToeBaseEnd
					{
						OFFSET 0.000000 -0.000000 7.370709
						CHANNELS 3 Zrotation Yrotation Xrotation
						End Site
						{
							OFFSET 0.000000 0.000000 0.000000
						}
					}
				}
				JOINT RightLegEnd
				{
					OFFSET 0.000000 0.000000 0.000000
					CHANNELS 3 Zrotation Yrotation Xrotation
					End Site
					{
						OFFSET 0.000000 0.000000 0.000000
					}
				}
			}
			JOINT RightUpLegEnd
			{
				OFFSET 0.000000 0.000000 0.000000
				CHANNELS 3 Zrotation Yrotation Xrotation
				End Site
				{
					OFFSET 0.000000 0.000000 0.000000
				}
			}
		}
	}
	JOINT LeftUpLeg
	{
		OFFSET 11.315661 0.000000 -0.000000
		CHANNELS 3 Zrotation Yrotation Xrotation
		JOINT LeftLeg
		{
			OFFSET -0.000000 -38.200325 0.000000
			CHANNELS 3 Zrotation Yrotation Xrotation
			JOINT LeftFoot
			{
				OFFSET -0.000000 -39.900856 0.000000
				CHANNELS 3 Zrotation Yrotation Xrotation
				JOINT LeftToeBase
				{
					OFFSET -0.000000 0.000000 15.261641
					CHANNELS 3 Zrotation Yrotation Xrotation
					JOINT LeftToeBaseEnd
					{
						OFFSET -0.000000 0.000000 7.539996
						CHANNELS 3 Zrotation Yrotation Xrotation
						End Site
						{
							OFFSET 0.000000 0.000000 0.000000
						}
					}
				}
				JOINT LeftLegEnd
				{
					OFFSET 0.000000 0.000000 0.000000
					CHANNELS 3 Zrotation Yrotation Xrotation
					End Site
					{
						OFFSET 0.000000 0.000000 0.000000
					}
				}
			}
			JOINT LeftUpLegEnd
			{
				OFFSET 0.000000 0.000000 0.000000
				CHANNELS 3 Zrotation Yrotation Xrotation
				End Site
				{
					OFFSET 0.000000 0.000000 0.000000
				}
			}
		}
	}
}
MOTION
Frames: 4
Frame Time: 0.016667
1.324476 86.935013 4.250773 -0.005520 -0.000820 -8.454336 -9.502729 2.132209 2.603971 23.001511 -7.753243 4.944421 -18.496262 2.613333 4.758206 6.376277 -2.118146 -0.085917 6.159887 1.680514 13.992615 -3.575328 1.129971 -5.854432 -0.653064 3.409355 -25.356731 0.000000 0.000000 0.000000 100.776543 -0.800587 3.953491 53.386036 -44.861557 2.161399 1.646132 15.969770 37.149387 2.687206 15.016356 -12.363097 9.441423 -1.728222 40.406590 0.000000 0.000000 -23.039999 0.000000 0.000000 -15.999999 0.000000 0.000000 0.000000 10.604505 0.000000 -9.643257 7.423153 0.000000 0.000000 7.423153 0.000000 0.000000 0.000000 0.000000 0.000000 11.399842 0.000000 -11.609115 7.979890 0.000000 0.000000 7.979890 0.000000 0.000000 0.000000 0.000000 0.000000 13.540874 0.000000 -12.430757 9.478612 0.000000 0.000000 9.478612 0.000000 0.000000 0.000000 0.000000 0.000000 14.975492 0.000000 -15.047190 10.482848 0.000000 0.000000 10.482848 0.000000 0.000000 0.000000 0.000000 0.000000 0.000000 0.000000 0.000000 0.000000 0.000000 0.000000 -95.208824 0.461970 4.229309 -60.893921 44.539249 -2.663038 -1.430935 -6.288035 50.052158 -2.959770 -13.881307 -14.714699 -8.844158 1.663611 40.678265 0.000000 0.000000 -21.599998 0.000000 0.000000 -15.000001 0.000000 0.000000 0.000000 -12.041668 0.000000 -12.461102 -8.429168 0.000000 0.000000 -8.429168 0.000000 0.000000 0.000000 0.000000 0.000000 -12.888119 -0.000000 -13.922879 -9.021683 0.000000 0.000000 -9.021683 0.000000 0.000000 0.000000 0.000000 0.000000 -15.009265 0.000000 -13.607731 -10.506484 0.000000 0.000000 -10.506484 0.000000 0.000000 0.000000 0.000000 0.000000 -16.041897 -0.000000 -13.917473 -11.229328 0.000000 0.000000 -11.229328 0.000000 0.000000 0.000000 0.000000 0.000000 0.000000 0.000000 0.000000 0.000000 0.000000 0.000000 -3.804071 -6.247012 10.866132 -0.277084 -1.224930 12.755727 -0.078077 -16.042011 13.849055 -0.819756 -0.598396 -27.499289 0.000000 0.000000 0.000000 0.000000 0.000000 0.000000 0.000000 0.000000 0.000000 6.390305 4.668367 7.751981 0.242041 1.004258 13.551477 -0.124300 2.065108 14.313011 0.291276 0.297029 -28.654657 0.000000 0.000000 0.000000 0.000000 0.000000 0.000000 0.000000 0.000000 0.000000 
1.305584 86.343773 4.525832 -0.359040 -0.292211 -10.365260 -1.383888 0.158095 6.369671 8.716414 -2.352610 1.643729 -8.083801 1.840633 9.488344 2.407769 -0.962553 -0.884439 7.276217 1.938408 12.802092 -2.873608 1.750339 -5.289307 -0.404674 3.292427 -24.468204 0.000000 0.000000 0.000000 99.664291 -1.551090 2.938506 58.860519 -42.338581 -0.164796 1.187544 18.045643 37.320911 1.375339 15.620840 -10.232774 9.295483 -1.719849 40.309372 -0.000000 0.000039 -22.964504 0.000001 0.000048 -15.835839 0.000001 -0.000006 -0.000030 9.317107 0.261843 -9.123902 7.110910 -0.062409 0.072217 7.174592 -0.029853 0.024161 -0.000020 0.000005 -0.000035 10.393236 0.085987 -11.274745 7.590984 -0.041048 0.032363 7.569315 -0.009815 0.032103 0.000032 0.000104 -0.000003 12.826530 -0.154923 -12.224724 9.079797 0.057571 -0.034657 9.022450 0.008971 -0.026965 -0.000024 0.000262 0.000015 14.279461 -0.428443 -14.950747 10.149969 0.120674 0.033749 10.090633 -0.002814 -0.002149 -0.000132 -0.000005 0.000026 0.000000 0.000000 0.000000 0.000000 0.000000 0.000000 -93.317970 0.502076 4.906418 -58.319130 47.664322 0.458985 -1.839113 -8.956635 49.938759 -1.792569 -15.216409 -16.391068 -8.736337 1.634136 40.623444 0.000006 0.000035 -21.407440 -0.000039 -0.000035 -14.630363 -0.000247 -0.000001 -0.000745 -11.818225 0.286779 -12.279013 -7.950968 -0.015328 0.170242 -7.972888 0.024433 0.148072 0.000003 -0.000105 -0.000020 -12.697054 0.130201 -13.208790 -8.692372 -0.028342 0.050307 -8.375865 0.003648 0.039204 -0.001029 -0.000059 -0.000019 -14.985718 -0.114469 -12.127099 -10.190936 0.055453 -0.097442 -10.188579 -0.007231 -0.068506 0.000469 0.000008 0.000006 -16.640867 -0.420493 -12.084873 -11.257092 0.073090 -0.234989 -11.242160 -0.037349 -0.180321 -0.000762 0.000003 -0.000038 0.000000 0.000000 0.000000 0.000000 0.000000 0.000000 -4.130511 -6.460464 12.062352 -0.189391 -0.910954 12.681039 -0.453693 -14.382008 15.876379 -0.382230 -0.896657 -28.357622 0.000000 0.000000 0.000000 0.000000 0.000000 0.000000 0.000000 0.000000 0.000000 6.710758 4.442779 10.697614 0.212408 0.980451 11.697963 -0.226691 4.518759 15.815405 0.418978 0.142502 -27.816996 0.000000 0.000000 0.000000 0.000000 0.000000 0.000000 0.000000 0.000000 0.000000 
1.269123 86.312386 4.642869 -0.443692 -0.283416 -10.577592 -1.324728 0.160418 6.541128 8.590945 -2.337995 1.608522 -7.815021 1.724301 9.613670 2.393399 -0.974343 -0.845441 7.320226 1.909020 12.959086 -2.885116 1.731987 -5.190968 -0.398651 3.308019 -24.494833 0.000000 0.000000 0.000000 99.499283 -1.503508 2.953411 59.305313 -41.851223 -0.388910 1.218841 18.251759 37.697041 0.740184 15.956016 -10.517377 9.223960 -1.713281 40.349735 -0.000006 0.000050 -22.753002 0.000010 0.000039 -15.700432 0.000012 0.000001 -0.000042 8.902681 0.251139 -8.972213 6.950206 -0.066501 0.096922 7.011014 -0.034838 0.042263 -0.000008 0.000015 -0.000026 9.961671 0.081430 -11.151061 7.419225 -0.042124 0.038033 7.387783 -0.011116 0.036745 0.000032 0.000080 -0.000013 12.379847 -0.147709 -12.232120 8.911114 0.058801 -0.043575 8.852067 0.010338 -0.033121 -0.000026 0.000385 0.000010 13.946681 -0.401652 -15.054127 10.001801 0.121467 0.014108 9.945763 0.002493 -0.019302 -0.000198 -0.000000 0.000023 0.000000 0.000000 0.000000 0.000000 0.000000 0.000000 -93.287537 0.476825 4.861438 -58.456089 47.549744 0.377176 -1.827570 -8.763520 50.034401 -1.802250 -15.106431 -16.259275 -8.737323 1.629697 40.632381 0.000010 0.000041 -21.373106 -0.000045 -0.000035 -14.611186 -0.000192 0.000005 -0.000970 -11.771276 0.274630 -12.287418 -8.017172 -0.011778 0.174704 -8.045644 0.026695 0.148848 0.000014 -0.000077 -0.000020 -12.636525 0.124345 -13.253944 -8.743859 -0.026502 0.052057 -8.437515 0.004210 0.040086 -0.000960 -0.000063 -0.000041 -14.892704 -0.103782 -12.257534 -10.228363 0.052059 -0.099125 -10.217731 -0.007788 -0.070756 0.000479 0.000010 0.000008 -16.464556 -0.386784 -12.280895 -11.274944 0.064029 -0.240988 -11.243688 -0.041049 -0.187656 -0.000757 0.000009 -0.000048 0.000000 0.000000 0.000000 0.000000 0.000000 0.000000 -4.051348 -6.466935 12.367957 -0.185281 -0.922189 12.598452 -0.460976 -14.343223 15.796690 -0.380923 -0.878445 -28.356930 0.000000 0.000000 0.000000 0.000000 0.000000 0.000000 0.000000 0.000000 0.000000 6.901684 4.638794 11.095646 0.208656 0.975538 11.510527 -0.289572 4.283152 15.661394 0.420137 0.137829 -27.802879 0.000000 0.000000 0.000000 0.000000 0.000000 0.000000 0.000000 0.000000 0.000000 
1.245554 86.289978 4.768102 -0.493279 -0.324311 -10.728365 -1.283125 0.163834 6.658199 8.473043 -2.319463 1.474517 -7.569411 1.630973 9.802158 2.378540 -0.979385 -0.864176 7.349434 1.891956 12.961558 -2.888124 1.723308 -5.190443 -0.387850 3.313014 -24.483461 0.000000 0.000000 0.000000 99.435898 -1.470952 2.978750 59.634228 -41.571892 -0.574164 1.252889 18.451597 37.672108 0.392447 16.173656 -10.569265 9.193159 -1.708734 40.371040 -0.000007 0.000050 -22.656469 0.000009 0.000042 -15.638393 0.000012 0.000001 -0.000042 8.654582 0.245653 -8.882304 6.875492 -0.066843 0.106411 6.937199 -0.035530 0.047554 -0.000008 0.000013 -0.000025 9.706590 0.079042 -11.065233 7.347752 -0.041688 0.038146 7.311189 -0.010972 0.036655 0.000031 0.000071 -0.000013 12.107838 -0.143763 -12.216176 8.834753 0.057436 -0.042671 8.775653 0.009758 -0.031816 -0.000024 0.000472 0.000011 13.720432 -0.386874 -15.089109 9.925546 0.116637 0.023485 9.872363 0.000177 -0.011934 -0.000277 -0.000001 0.000012 0.000000 0.000000 0.000000 0.000000 0.000000 0.000000 -93.290604 0.484594 4.845807 -58.446022 47.537357 0.349229 -1.816600 -8.639192 50.073093 -1.904702 -14.923223 -16.072294 -8.751296 1.627952 40.630589 0.000009 0.000042 -21.396091 -0.000047 -0.000036 -14.633472 -0.000152 0.000004 -0.001146 -11.817186 0.266001 -12.224491 -8.092216 -0.008419 0.181766 -8.127021 0.029210 0.152410 0.000013 -0.000070 -0.000020 -12.679293 0.121296 -13.221723 -8.803131 -0.024962 0.055224 -8.508603 0.004901 0.042271 -0.001027 -0.000065 -0.000058 -14.886012 -0.097380 -12.297693 -10.255973 0.049433 -0.102245 -10.243352 -0.008681 -0.073615 0.000565 0.000010 0.000008 -16.357435 -0.368736 -12.364934 -11.256152 0.056909 -0.248562 -11.229171 -0.044879 -0.196205 -0.000769 0.000009 -0.000048 0.000000 0.000000 0.000000 0.000000 0.000000 0.000000 -3.978789 -6.415377 12.641788 -0.183133 -0.931202 12.500278 -0.476953 -14.318445 15.704008 -0.389210 -0.865707 -28.311405 0.000000 0.000000 0.000000 0.000000 0.000000 0.000000 0.000000 0.000000 0.000000 7.021863 4.774343 11.419710 0.206200 0.972690 11.392854 -0.348046 4.214117 15.503062 0.418270 0.137312 -27.757490 0.000000 0.000000 0.000000 0.000000 0.000000 0.000000 0.000000 0.000000 0.000000 
